<svg xmlns="http://www.w3.org/2000/svg" version="1.1" viewBox="-5.0 -10.0 110.0 135.0">
 <path d="m26.664 85.914h46.676c6.9336 0 12.574-5.6406 12.574-12.574v-29.77c0-1.0781-0.875-1.9531-1.9531-1.9531-1.0781 0-1.9531 0.875-1.9531 1.9531v29.77c0 4.7812-3.8906 8.668-8.668 8.668h-46.676c-4.7812 0-8.668-3.8906-8.668-8.668v-46.676c0-4.7812 3.8906-8.668 8.668-8.668h30.469c1.0781 0 1.9531-0.875 1.9531-1.9531s-0.875-1.9531-1.9531-1.9531h-30.469c-6.9336 0-12.574 5.6406-12.574 12.574v46.676c0 6.9336 5.6406 12.574 12.574 12.574z"/>
 <path d="m64.711 17.992h14.535l-34.965 34.965c-0.76172 0.76172-0.76172 2 0 2.7617 0.38281 0.38281 0.88281 0.57031 1.3828 0.57031s1-0.19141 1.3828-0.57031l34.965-34.965v14.535c0 1.0781 0.875 1.9531 1.9531 1.9531s1.9531-0.875 1.9531-1.9531v-19.25c0-1.0781-0.875-1.9531-1.9531-1.9531h-19.25c-1.0781 0-1.9531 0.875-1.9531 1.9531 0 1.0781 0.875 1.9531 1.9531 1.9531z"/>
</svg>